<svg xmlns="http://www.w3.org/2000/svg" width="1280" height="760" viewBox="0 0 1280 760">
  <rect width="1280" height="760" fill="#090d12"/>
  <rect x="32" y="28" width="1216" height="704" rx="10" fill="#0f141a" stroke="#27313d"/>
  <text x="66" y="76" fill="#f3f6f8" font-family="Segoe UI,Arial" font-size="27" font-weight="700">Quant Lab</text>
  <text x="66" y="102" fill="#8fa2ae" font-family="Segoe UI,Arial" font-size="14">Analytical, quiet, precise · cyan and amber data language</text>
  <line x1="66" y1="128" x2="1214" y2="128" stroke="#27313d"/>
  <g font-family="Segoe UI,Arial" font-size="13" font-weight="700">
    <text x="66" y="162" fill="#8fa2ae">Overview</text>
    <text x="178" y="162" fill="#39d9e8">Category Lab</text>
    <text x="318" y="162" fill="#8fa2ae">Scores</text>
    <text x="418" y="162" fill="#8fa2ae">Validation</text>
    <text x="540" y="162" fill="#8fa2ae">Generator</text>
  </g>
  <line x1="178" y1="176" x2="258" y2="176" stroke="#39d9e8" stroke-width="3"/>
  <g font-family="Segoe UI,Arial">
    <rect x="66" y="204" width="350" height="158" rx="8" fill="#121922" stroke="#293642"/>
    <text x="90" y="240" fill="#f3f6f8" font-size="18" font-weight="700">Composite Distribution</text>
    <polyline points="92,318 126,302 160,310 194,282 228,292 262,252 296,270 330,236 364,244" fill="none" stroke="#39d9e8" stroke-width="3"/>
    <line x1="92" y1="330" x2="366" y2="330" stroke="#364452"/>
    <text x="90" y="346" fill="#8fa2ae" font-size="12">2010-2026 objective data</text>
    <rect x="452" y="204" width="350" height="158" rx="8" fill="#121922" stroke="#293642"/>
    <text x="476" y="240" fill="#f3f6f8" font-size="18" font-weight="700">Regime Signal</text>
    <rect x="478" y="270" width="260" height="14" rx="2" fill="#26313d"/>
    <rect x="478" y="270" width="94" height="14" rx="2" fill="#39d9e8"/>
    <rect x="578" y="270" width="74" height="14" rx="2" fill="#eab44f"/>
    <rect x="658" y="270" width="80" height="14" rx="2" fill="#39d9e8"/>
    <text x="476" y="318" fill="#8fa2ae" font-size="13">Trend windows, volatility shifts, macro markers.</text>
    <rect x="838" y="204" width="376" height="158" rx="8" fill="#121922" stroke="#293642"/>
    <text x="862" y="240" fill="#f3f6f8" font-size="18" font-weight="700">Validation Stack</text>
    <circle cx="884" cy="284" r="8" fill="#39d9e8"/><text x="904" y="289" fill="#8fa2ae" font-size="13">Retest 0</text>
    <circle cx="884" cy="318" r="8" fill="#eab44f"/><text x="904" y="323" fill="#8fa2ae" font-size="13">Forward / WFM</text>
  </g>
  <rect x="66" y="392" width="1148" height="284" rx="8" fill="#10161e" stroke="#293642"/>
  <text x="92" y="430" fill="#f3f6f8" font-family="Segoe UI,Arial" font-size="19" font-weight="700">Category Scores</text>
  <g font-family="Segoe UI,Arial" font-size="13">
    <rect x="92" y="462" width="1096" height="42" fill="#151d27"/>
    <text x="118" y="488" fill="#8fa2ae" font-weight="700">Asset</text>
    <text x="260" y="488" fill="#8fa2ae" font-weight="700">Category</text>
    <text x="432" y="488" fill="#8fa2ae" font-weight="700">Composite</text>
    <text x="646" y="488" fill="#8fa2ae" font-weight="700">TF</text>
    <text x="772" y="488" fill="#8fa2ae" font-weight="700">Decision</text>
    <rect x="92" y="510" width="1096" height="44" fill="#0f141a"/>
    <text x="118" y="537" fill="#f3f6f8">XAUUSD</text>
    <text x="260" y="537" fill="#39d9e8">Tendencia</text>
    <rect x="432" y="526" width="160" height="9" rx="2" fill="#24313c"/>
    <rect x="432" y="526" width="136" height="9" rx="2" fill="#39d9e8"/>
    <text x="646" y="537" fill="#8fa2ae">H1</text>
    <text x="772" y="537" fill="#eab44f" font-weight="700">MAXIMA</text>
    <rect x="92" y="560" width="1096" height="44" fill="#121922"/>
    <text x="118" y="587" fill="#f3f6f8">USTEC</text>
    <text x="260" y="587" fill="#39d9e8">Momentum</text>
    <rect x="432" y="576" width="160" height="9" rx="2" fill="#24313c"/>
    <rect x="432" y="576" width="122" height="9" rx="2" fill="#39d9e8"/>
    <text x="646" y="587" fill="#8fa2ae">M30</text>
    <text x="772" y="587" fill="#eab44f" font-weight="700">ALTA</text>
    <rect x="92" y="610" width="1096" height="44" fill="#0f141a"/>
    <text x="118" y="637" fill="#f3f6f8">EURGBP</text>
    <text x="260" y="637" fill="#39d9e8">Estadistico</text>
    <rect x="432" y="626" width="160" height="9" rx="2" fill="#24313c"/>
    <rect x="432" y="626" width="96" height="9" rx="2" fill="#eab44f"/>
    <text x="646" y="637" fill="#8fa2ae">H4</text>
    <text x="772" y="637" fill="#8fa2ae" font-weight="700">SECUNDARIA</text>
  </g>
</svg>
